<?xml version="1.0" encoding="UTF-8" standalone="no"?>
<!-- Based on MDAnalysis/branding MDAKits template:
     https://github.com/MDAnalysis/branding/blob/main/templates/MDAKits/mdakits-placeholder-logo.svg -->
<svg
   width="100mm"
   height="100mm"
   viewBox="0 0 100 100"
   version="1.1"
   id="propkatraj-logo"
   xmlns="http://www.w3.org/2000/svg">
  <g id="layer1">
    <path
       id="black-gear"
       style="fill:#000000;fill-opacity:1;stroke:#000000;stroke-width:1.76178;stroke-linecap:round;stroke-linejoin:round;stroke-dasharray:none;stroke-opacity:1;paint-order:stroke markers fill"
       d="m 39.89983,23.38366 -1.230809,6.527741 a 29.259361,29.259361 0 0 0 -4.871787,1.342416 l -4.355905,-5.067976 -3.170096,1.830565 -0.261715,0.150834 -3.170451,1.830564 2.20279,6.282227 a 29.259361,29.259361 0 0 0 -3.571484,3.577965 l -6.287271,-2.204233 -1.830566,3.170458 -0.150834,0.261708 -1.830564,3.170097 5.0795,4.365994 a 29.259361,29.259361 0 0 0 -1.333771,4.857739 l -6.5479085,1.234773 v 3.660768 0.302029 3.660767 l 6.4917465,1.223969 a 29.259361,29.259361 0 0 0 1.320451,4.928304 l -5.010018,4.306235 1.830564,3.17009 0.150834,0.261715 1.830566,3.170455 6.140757,-2.153119 a 29.259361,29.259361 0 0 0 3.649599,3.722328 l -2.134391,6.086754 3.170451,1.830564 0.261715,0.150832 3.170096,1.830568 4.195356,-4.881141 a 29.259361,29.259361 0 0 0 5.080932,1.412969 l 1.182213,6.270351 h 3.660767 0.302037 3.66076 l 1.16998,-6.203388 a 29.259361,29.259361 0 0 0 5.164807,-1.396412 l 4.123717,4.797621 3.17009,-1.830568 0.261716,-0.150832 3.17046,-1.830564 -2.072476,-5.911796 a 29.259361,29.259361 0 0 0 3.822035,-3.815204 l 5.9064,2.071037 1.830562,-3.170455 0.150841,-0.261715 1.830557,-3.17009 -4.786098,-4.113638 a 29.259361,29.259361 0 0 0 1.404686,-5.178853 l 6.183593,-1.166017 V 58.677329 58.3753 54.714532 L 72.661677,53.54672 a 29.259361,29.259361 0 0 0 -1.411171,-5.16338 l 4.801577,-4.127314 -1.830557,-3.170097 -0.150841,-0.261708 -1.830562,-3.170458 -6.036718,2.116397 a 29.259361,29.259361 0 0 0 -3.745721,-3.706842 l 2.12648,-6.065514 -3.17046,-1.830564 -0.261716,-0.150834 -3.17009,-1.830565 -4.234593,4.926854 A 29.259361,29.259361 0 0 0 48.735129,29.808084 L 47.523394,23.38366 h -3.66076 -0.302037 z m 3.959559,10.380742 a 24.885089,24.885087 0 0 1 24.88485,24.88521 24.885089,24.885087 0 0 1 -24.88485,24.884847 24.885089,24.885087 0 0 1 -24.885201,-24.884847 24.885089,24.885087 0 0 1 24.885201,-24.88521 z" />
    <path
       id="orange-gear"
       style="fill:#ff9200;fill-opacity:1;stroke:#ff9200;stroke-width:0.696627;stroke-linecap:round;stroke-linejoin:round;stroke-dasharray:none;stroke-opacity:1;paint-order:stroke markers fill"
       d="M 76.858708,7.5147266 75.957554,10.6971 a 12.706758,12.706758 0 0 0 -2.796135,1.182973 l -2.91293,-1.62729 -1.703933,1.703772 -0.140585,0.140754 -1.703932,1.703771 1.630932,2.919591 a 12.706758,12.706758 0 0 0 -1.173455,2.785661 l -3.195541,0.904969 v 2.409742 0.198831 2.40975 l 3.194593,0.904487 a 12.706758,12.706758 0 0 0 1.173295,2.788045 l -1.629824,2.917528 1.703932,1.703931 0.140585,0.140753 1.703933,1.703767 2.909434,-1.625382 a 12.706758,12.706758 0 0 0 2.800743,1.185041 l 0.900042,3.178404 h 2.40959 0.198983 2.409585 l 0.897673,-3.170316 a 12.706758,12.706758 0 0 0 2.82042,-1.183446 l 2.89214,1.615699 1.70392,-1.703767 0.14059,-0.140753 1.70393,-1.703931 -1.6122,-2.885789 a 12.706758,12.706758 0 0 0 1.19296,-2.830414 l 3.1573,-0.893857 v -2.40975 -0.198831 -2.409742 l -3.14968,-0.891956 a 12.706758,12.706758 0 0 0 -1.18598,-2.85834 l 1.5976,-2.859925 -1.70393,-1.703771 -0.14059,-0.140747 -1.70392,-1.703771 -2.86723,1.601736 a 12.706758,12.706758 0 0 0 -2.84676,-1.174885 L 81.876866,7.5147266 h -2.409585 -0.198983 z m 2.526541,6.4328134 a 8.9748389,8.9748389 0 0 1 8.9749,8.974905 8.9748389,8.9748389 0 0 1 -8.9749,8.974744 8.9748389,8.9748389 0 0 1 -8.974745,-8.974744 8.9748389,8.9748389 0 0 1 8.974745,-8.974905 z" />
    <path
       style="fill:#000000;stroke:#000000;stroke-width:0"
       d="m 29.037835,44.397481 v 6.449495 h 2.564401 V 47.03957 h 3.885094 v -2.642089 z" />
    <path
       style="fill:#000000;stroke:#000000;stroke-width:0"
       d="m 59.244526,44.397807 v 6.449495 h -2.564401 v -3.807406 h -3.885094 v -2.642089 z" />
    <path
       style="fill:#000000;stroke:#000000;stroke-width:0"
       d="m 29.037816,72.109554 v -6.449495 h 2.564401 v 3.807406 h 3.885094 v 2.642089 z" />
    <path
       style="fill:#000000;stroke:#000000;stroke-width:0"
       d="m 59.244507,72.109228 v -6.449495 h -2.564401 v 3.807406 h -3.885094 v 2.642089 z" />
    <g id="center-symbol">
      <!-- protonation transition (pKa titration curve) -->
      <path
         style="fill:none;stroke:#000000;stroke-width:1.4;stroke-linecap:round;stroke-linejoin:round"
         d="M 33.5,59.5 C 39,59.5 40,50.5 44.5,50.5 C 49,50.5 50,59.5 55.5,59.5" />
      <!-- trajectory ensemble sampled across frames -->
      <path
         style="fill:none;stroke:#000000;stroke-width:1.1;stroke-linecap:round;stroke-linejoin:round"
         d="M 32.8,67.2 35.5,63.8 38.2,67.2 40.9,63.8 43.6,67.2 46.3,63.8 49,67.2 51.7,63.8 54.4,67.2 57.1,64" />
      <circle cx="35.5" cy="63.8" r="0.75" style="fill:#000000" />
      <circle cx="40.9" cy="63.8" r="0.75" style="fill:#000000" />
      <circle cx="46.3" cy="63.8" r="0.75" style="fill:#000000" />
      <circle cx="51.7" cy="63.8" r="0.75" style="fill:#000000" />
      <circle cx="57.1" cy="64" r="0.75" style="fill:#000000" />
      <text
         x="41.5"
         y="48.5"
         style="font-size:6.5px;font-family:Arial,sans-serif;font-weight:bold;fill:#000000">H+</text>
    </g>
  </g>
</svg>
