<?xml version="1.0" encoding="UTF-8" standalone="no"?>
<!-- Based on MDAnalysis/branding MDAKits favicon template:
     https://github.com/MDAnalysis/branding/blob/main/templates/MDAKits/mdakits-empty-favicon-template.svg -->
<svg
   width="16"
   height="16"
   viewBox="0 0 4.2333332 4.2333333"
   version="1.1"
   id="propkatraj-favicon"
   xmlns="http://www.w3.org/2000/svg">
  <g transform="matrix(0.0295245,0,0,0.0295245,-0.96581456,-2.2515705)">
    <path
       style="fill:#000000;stroke:#000000;stroke-width:2.529;stroke-linecap:round;stroke-linejoin:round;paint-order:stroke markers fill"
       d="m 88.572864,109.18379 -1.766818,9.37048 a 42.001405,42.001405 0 0 0 -6.993372,1.92702 l -6.252847,-7.27501 -4.550627,2.62775 -0.375687,0.21652 -4.551146,2.62775 3.162083,9.01805 a 42.001405,42.001405 0 0 0 -5.12682,5.13612 l -9.02529,-3.16415 -2.627746,4.55115 -0.216524,0.37568 -2.627747,4.55063 7.291546,6.26732 a 42.001405,42.001405 0 0 0 -1.914612,6.97322 l -9.399426,1.7725 v 5.25498 0.43356 5.25498 l 9.31881,1.75699 a 42.001405,42.001405 0 0 0 1.895491,7.07451 l -7.191809,6.18154 2.627747,4.55062 0.216524,0.37569 2.627746,4.55114 8.814967,-3.09077 a 42.001405,42.001405 0 0 0 5.238956,5.34335 l -3.063896,8.73745 4.551146,2.62775 0.375687,0.21652 4.550627,2.62775 6.022372,-7.00681 a 42.001405,42.001405 0 0 0 7.293609,2.0283 l 1.697056,9.001 h 5.254975 0.433567 5.254977 l 1.679487,-8.90488 a 42.001405,42.001405 0 0 0 7.41401,-2.00453 l 5.91954,6.88692 4.55062,-2.62775 0.37569,-0.21652 4.55115,-2.62775 -2.97501,-8.4863 a 42.001405,42.001405 0 0 0 5.48648,-5.47667 l 8.47855,2.97294 2.62775,-4.55114 0.21653,-0.37569 2.62774,-4.55062 -6.87038,-5.90507 a 42.001405,42.001405 0 0 0 2.01641,-7.43417 l 8.87646,-1.6738 v -5.25498 -0.43356 -5.25498 l -8.88937,-1.67638 a 42.001405,42.001405 0 0 0 -2.02572,-7.41196 l 6.8926,-5.9247 -2.62774,-4.55063 -0.21653,-0.37568 -2.62775,-4.55115 -8.66562,3.03806 a 42.001405,42.001405 0 0 0 -5.37693,-5.32112 l 3.05253,-8.70696 -4.55115,-2.62775 -0.37569,-0.21652 -4.55062,-2.62775 -6.0787,7.07243 a 42.001405,42.001405 0 0 0 -7.19491,-1.87275 l -1.739427,-9.22217 h -5.254977 -0.433567 z m 5.683891,14.90141 A 35.722197,35.722194 0 0 1 129.97861,159.80757 35.722197,35.722194 0 0 1 94.256755,195.52942 35.722197,35.722194 0 0 1 58.534386,159.80757 35.722197,35.722194 0 0 1 94.256755,124.0852 Z" />
    <path
       style="fill:#ff9200;stroke:#ff9200;stroke-width:1.35831;stroke-linecap:round;stroke-linejoin:round;paint-order:stroke markers fill"
       d="m 141.62682,86.404156 -1.2936,4.568248 a 18.240373,18.240373 0 0 0 -4.01381,1.698144 l -4.18147,-2.335946 -2.44597,2.44574 -0.20181,0.202046 -2.44597,2.445737 2.34118,4.191034 a 18.240373,18.240373 0 0 0 -1.68448,3.998781 l -4.58715,1.29907 v 3.45915 0.28542 3.45916 l 4.58579,1.29838 a 18.240373,18.240373 0 0 0 1.68425,4.0022 l -2.33959,4.18807 2.44597,2.44597 0.20181,0.20205 2.44597,2.44573 4.17645,-2.33321 a 18.240373,18.240373 0 0 0 4.02043,1.70111 l 1.292,4.56255 h 3.45893 0.28564 3.45893 l 1.28859,-4.55094 a 18.240373,18.240373 0 0 0 4.04867,-1.69882 l 4.15163,2.31931 2.44596,-2.44573 0.20182,-0.20205 2.44597,-2.44597 -2.31431,-4.14251 a 18.240373,18.240373 0 0 0 1.71249,-4.06302 l 4.53226,-1.28312 v -3.45916 -0.28542 -3.45915 l -4.52132,-1.28039 a 18.240373,18.240373 0 0 0 -1.70247,-4.103109 l 2.29335,-4.105386 -2.44597,-2.445737 -0.20182,-0.202046 -2.44596,-2.44574 -4.11587,2.299272 a 18.240373,18.240373 0 0 0 -4.08648,-1.686526 l -1.28654,-4.543192 h -3.45893 -0.28564 z m 3.62681,9.234215 a 12.883256,12.883256 0 0 1 12.88335,12.883349 12.883256,12.883256 0 0 1 -12.88335,12.88312 12.883256,12.883256 0 0 1 -12.88312,-12.88312 12.883256,12.883256 0 0 1 12.88312,-12.883349 z" />
  </g>
</svg>
